<svg width="75" height="75" viewBox="0 0 75 75" fill="none" xmlns="http://www.w3.org/2000/svg">
<circle cx="36.5452" cy="36.5452" r="36.5452" fill="black"/>
<path d="M40.5097 12.1818C39.6656 12.1799 38.8147 12.2881 37.9777 12.5117L23.251 16.4471L24.6859 21.788L39.4126 17.8526C40.8474 17.4693 42.3783 17.8782 43.4288 18.9257L54.2095 29.6777C55.2598 30.7253 55.67 32.2523 55.2856 33.6833L51.5506 47.5849L59.3913 39.7654L60.6409 35.1142C61.5378 31.7751 60.5806 28.2126 58.1298 25.7681L47.3491 15.016C45.5108 13.1829 43.0418 12.1875 40.5097 12.1818Z" fill="url(#paint0_linear_18_258)"/>
<path d="M32.6436 60.9087C33.4876 60.9106 34.3386 60.8024 35.1756 60.5788L49.9023 56.6434L48.4673 51.3024L33.7407 55.2378C32.3058 55.6212 30.775 55.2122 29.7245 54.1648L18.9438 43.4127C17.8935 42.3651 17.4833 40.8382 17.8677 39.4071L21.6027 25.5055L13.762 33.325L12.5124 37.9762C11.6155 41.3154 12.5727 44.8779 15.0235 47.3224L25.8042 58.0744C27.6425 59.9076 30.1115 60.903 32.6436 60.9087Z" fill="url(#paint1_linear_18_258)"/>
<path d="M45.3473 49.7332C42.6362 50.4577 41.0273 53.2369 41.7537 55.9407C42.4802 58.6445 45.2668 60.2491 47.9779 59.5246C50.689 58.8001 52.2979 56.0209 51.5714 53.3171C50.845 50.6133 48.0584 49.0087 45.3473 49.7332Z" fill="#38ECBF"/>
<path d="M27.7384 23.3571C30.4495 22.6326 32.0583 19.8534 31.3319 17.1496C30.6055 14.4457 27.8188 12.8412 25.1077 13.5657C22.3966 14.2901 20.7878 17.0693 21.5142 19.7732C22.2406 22.477 25.0273 24.0816 27.7384 23.3571Z" fill="#38ECBF"/>
<defs>
<linearGradient id="paint0_linear_18_258" x1="62.0981" y1="44.4127" x2="28.7438" y2="10.969" gradientUnits="userSpaceOnUse">
<stop stop-color="#000C80" stop-opacity="0.7"/>
<stop offset="0.866085" stop-color="#38ECBF"/>
</linearGradient>
<linearGradient id="paint1_linear_18_258" x1="11.0552" y1="28.6777" x2="44.4095" y2="62.1215" gradientUnits="userSpaceOnUse">
<stop stop-color="#000C80" stop-opacity="0.7"/>
<stop offset="0.866085" stop-color="#38ECBF"/>
</linearGradient>
</defs>
</svg>
